<?xml version="1.0" standalone="no"?>
<!DOCTYPE svg PUBLIC "-//W3C//DTD SVG 20010904//EN"
 "http://www.w3.org/TR/2001/REC-SVG-20010904/DTD/svg10.dtd">
<svg version="1.0" xmlns="http://www.w3.org/2000/svg"
 width="633.000000pt" height="633.000000pt" viewBox="0 0 633.000000 633.000000"
 preserveAspectRatio="xMidYMid meet">
<metadata>
Created by potrace 1.14, written by Peter Selinger 2001-2017
</metadata>
<g transform="translate(0.000000,633.000000) scale(0.100000,-0.100000)"
fill="#000000" stroke="none">
<path d="M0 4375 l0 -1955 3165 0 3165 0 0 1955 0 1955 -3165 0 -3165 0 0
-1955z m1749 636 c243 -58 404 -209 457 -427 9 -40 14 -84 10 -98 l-6 -26
-150 0 c-95 0 -151 4 -155 11 -4 6 -13 39 -20 75 -19 89 -58 142 -137 185 -62
33 -64 34 -188 34 -105 -1 -132 -4 -170 -21 -101 -47 -149 -116 -150 -212 0
-136 83 -199 405 -307 360 -120 506 -237 559 -445 31 -121 13 -260 -48 -364
-64 -109 -224 -210 -385 -242 -128 -25 -357 -15 -468 20 -116 37 -224 100
-297 172 -80 79 -146 228 -146 328 l0 46 155 0 c116 0 157 -3 159 -12 2 -7 10
-39 17 -71 29 -134 131 -216 294 -237 97 -12 219 1 282 31 90 43 142 147 124
245 -25 131 -84 171 -421 283 -253 84 -422 193 -495 317 -34 58 -65 165 -65
224 0 50 22 147 45 196 54 116 189 228 330 274 134 44 330 53 464 21z m1601
-25 c263 -51 432 -203 484 -435 51 -229 -33 -459 -209 -575 -136 -91 -264
-116 -582 -116 l-233 0 0 -335 0 -335 -160 0 -160 0 0 905 0 905 393 0 c300 0
409 -3 467 -14z m1055 -8 c3 -13 6 -318 8 -678 l2 -655 32 -61 c35 -68 75
-106 143 -138 38 -17 65 -20 175 -20 112 0 137 3 177 21 63 29 122 93 150 161
23 57 23 57 28 722 l5 665 158 3 158 3 -4 -693 c-3 -759 1 -703 -64 -831 -64
-127 -194 -232 -349 -283 -85 -28 -96 -29 -269 -29 -174 1 -183 2 -265 31
-183 64 -302 180 -377 366 -16 39 -18 106 -20 741 l-4 697 155 0 c153 0 156 0
161 -22z"/>
<path d="M2817 4734 c-4 -4 -7 -144 -7 -311 l0 -303 210 0 c117 0 232 5 262
11 110 23 191 85 219 166 8 21 14 78 14 128 0 78 -4 97 -28 147 -33 67 -81
110 -157 140 -50 20 -77 23 -280 26 -124 2 -228 0 -233 -4z"/>
<path d="M801 1865 c-218 -48 -330 -244 -240 -423 50 -100 132 -154 345 -227
62 -20 129 -47 150 -59 54 -30 84 -78 84 -135 0 -101 -69 -151 -210 -152 -138
-1 -223 57 -237 161 l-6 40 -98 0 -99 0 6 -42 c3 -24 19 -71 35 -105 47 -98
130 -159 264 -193 235 -60 478 31 526 197 22 75 16 164 -16 228 -47 98 -143
159 -357 231 -132 44 -197 85 -216 136 -29 75 11 152 93 184 65 24 187 16 238
-17 40 -26 77 -89 77 -132 l0 -27 94 0 c52 0 97 3 99 8 9 16 -20 120 -46 164
-28 48 -89 104 -144 132 -86 43 -225 56 -342 31z"/>
<path d="M5311 1864 c-164 -44 -276 -169 -327 -364 -22 -81 -25 -308 -5 -395
20 -93 74 -198 130 -258 207 -219 585 -167 719 100 53 105 66 171 67 343 0
173 -9 225 -60 337 -88 193 -312 294 -524 237z m236 -172 c54 -28 96 -78 124
-149 22 -54 24 -72 24 -248 0 -221 -11 -266 -83 -347 -35 -38 -56 -51 -100
-64 -134 -39 -250 14 -309 142 -32 70 -43 139 -43 269 0 183 30 285 105 358
69 67 193 84 282 39z"/>
<path d="M1430 1780 l0 -80 175 0 175 0 0 -485 0 -485 95 0 95 0 0 485 0 485
178 2 177 3 3 78 3 77 -451 0 -450 0 0 -80z"/>
<path d="M2462 1422 l3 -437 33 -67 c64 -131 201 -207 373 -208 186 0 324 77
393 220 l31 65 3 433 3 432 -96 0 -95 0 0 -390 c0 -240 -4 -408 -11 -439 -23
-110 -92 -161 -216 -161 -111 0 -165 28 -207 105 -20 39 -21 53 -24 463 l-3
422 -95 0 -95 0 3 -438z"/>
<path d="M3510 1295 l0 -565 193 0 c126 0 215 5 258 14 173 37 300 149 359
319 31 88 39 294 16 400 -45 203 -174 336 -368 382 -44 10 -121 15 -260 15
l-198 0 0 -565z m444 391 c126 -38 190 -145 203 -341 11 -169 -35 -331 -110
-387 -65 -50 -98 -61 -203 -67 -55 -3 -108 -5 -117 -3 -16 3 -17 40 -17 408
l0 404 98 0 c56 0 119 -6 146 -14z"/>
<path d="M4560 1295 l0 -565 100 0 100 0 0 565 0 565 -100 0 -100 0 0 -565z"/>
</g>
</svg>
